<svg id="Layer_5" enable-background="new 0 0 64 64" height="512" viewBox="0 0 64 64" width="512" xmlns="http://www.w3.org/2000/svg" xmlns:xlink="http://www.w3.org/1999/xlink"><linearGradient id="SVGID_1_" gradientUnits="userSpaceOnUse" x1="32" x2="32" y1="63" y2="1"><stop offset="0" stop-color="#9f2fff"/><stop offset="1" stop-color="#0bb1d3"/></linearGradient><path d="m9 10.264c-1.811 1.266-3 3.364-3 5.736 0 2.047.889 3.886 2.294 5.167-4.149.8-7.294 4.454-7.294 8.833v6.5c0 1.93 1.57 3.5 3.5 3.5h1.5v4 1 14c0 2.206 1.794 4 4 4 1.201 0 2.266-.542 3-1.382.734.84 1.799 1.382 3 1.382 2.206 0 4-1.794 4-4v-16h43v-42h-54zm-1 5.736c0-2.757 2.243-5 5-5s5 2.243 5 5-2.243 5-5 5-5-2.243-5-5zm2 45c-1.103 0-2-.897-2-2v-14h4v14c0 1.103-.897 2-2 2zm-.5-28h-1.5v-2h6v12h-6v-3h1.5c1.93 0 3.5-1.57 3.5-3.5s-1.57-3.5-3.5-3.5zm8.5-5v31c0 1.103-.897 2-2 2s-2-.897-2-2v-14h2v-16h-10v6h3.5c.827 0 1.5.673 1.5 1.5s-.673 1.5-1.5 1.5h-5c-.827 0-1.5-.673-1.5-1.5v-6.5c0-3.86 3.141-7 7-7h24.5c.827 0 1.5.673 1.5 1.5s-.673 1.5-1.5 1.5h-14.5c-1.103 0-2 .897-2 2zm19.649-2h1.351v11h-4v-9.051c1.173-.17 2.154-.916 2.649-1.949zm15.351-3.713 4-6.401v21.114h-4zm-2 14.713h-4v-14h4zm-6 0h-4v-11.382l4-2zm-12-9v9h-4v-5.586l3.414-3.414zm-13 13v-13h9.586l-2.586 2.586v8.414h32v-26h-2.555l-5 8h-5.682l-6 3h-1.814c-.245-1.692-1.691-3-3.449-3h-16.611c1.301-1.272 2.111-3.042 2.111-5s-.81-3.728-2.111-5h43.111v30zm41-38v6h-50v-6zm-46 4h-2v-2h2zm4 0h-2v-2h2zm4 0h-2v-2h2zm1 8h-2v-2h2zm2-2h22v2h-22zm-4 4h26v2h-26z" fill="url(#SVGID_1_)"/></svg>