<svg id="Layer_5" enable-background="new 0 0 64 64" height="512" viewBox="0 0 64 64" width="512" xmlns="http://www.w3.org/2000/svg" xmlns:xlink="http://www.w3.org/1999/xlink"><linearGradient id="SVGID_1_" gradientUnits="userSpaceOnUse" x1="32" x2="32" y1="63" y2=".613"><stop offset="0" stop-color="#9f2fff"/><stop offset="1" stop-color="#0bb1d3"/></linearGradient><path d="m35 53h2v2h-2zm4 2h2v-2h-2zm6-2h-2v2h2zm0-24h18v34h-46v-25h-3c-2.757 0-5-2.243-5-5v-9.613l-.923-.307-7.077 3.538v-17.236l7.077 3.538 36.923-12.307zm-8 1.613v-25.226l-28 9.334v6.559zm-22 1.387h12v-2.612l-12-4zm24-.721 4 1.333v-29.225l-4 1.333zm-36-7.897 4-2v-6.764l-4-2zm11 12.618h14c1.654 0 3-1.346 3-3v-2.279l-2-.667v1.946c0 1.103-.897 2-2 2h-12c-1.103 0-2-.897-2-2v-7.279l-2-.667v8.946c0 1.654 1.346 3 3 3zm5 2v21.881l14.128-11.639c-.186-.177-.374-.354-.547-.547l-8.726-9.695zm42 21.881v-27.275l-13.581 15.09c-.173.193-.36.369-.547.546zm-21-8.881c-1.872 0-3.684-.538-5.248-1.506l-13.966 11.506h38.428l-13.966-11.506c-1.564.968-3.376 1.506-5.248 1.506zm5-20v4.388l-12-4v1.612c0 2.757-2.243 5-5 5h-1.455l7.522 8.357c1.512 1.68 3.674 2.643 5.933 2.643s4.421-.963 5.933-2.643l13.822-15.357z" fill="url(#SVGID_1_)"/></svg>