<svg id="Layer_5" enable-background="new 0 0 64 64" height="512" viewBox="0 0 64 64" width="512" xmlns="http://www.w3.org/2000/svg" xmlns:xlink="http://www.w3.org/1999/xlink"><linearGradient id="SVGID_1_" gradientUnits="userSpaceOnUse" x1="32" x2="32" y1="63" y2="1"><stop offset="0" stop-color="#9f2fff"/><stop offset="1" stop-color="#0bb1d3"/></linearGradient><path d="m14.696 47.717c1.4-1.1 2.304-2.803 2.304-4.717 0-3.309-2.691-6-6-6s-6 2.691-6 6c0 1.914.904 3.617 2.304 4.717-3.688 1.474-6.304 5.076-6.304 9.283v6h20v-6c0-4.207-2.616-7.809-6.304-9.283zm-2.738 7.911-.958.958-.958-.958.662-6.613c.099-.004.196-.015.296-.015s.197.011.296.015zm-4.958-12.628c0-2.206 1.794-4 4-4s4 1.794 4 4-1.794 4-4 4-4-1.794-4-4zm12 18h-16v-4c0-3.597 2.387-6.646 5.66-7.649l-.702 7.021 3.042 3.042 3.042-3.042-.702-7.021c3.273 1.003 5.66 4.052 5.66 7.649zm37.696-49.283c1.4-1.1 2.304-2.803 2.304-4.717 0-3.309-2.691-6-6-6s-6 2.691-6 6c0 1.914.904 3.617 2.304 4.717-3.153 1.26-5.515 4.077-6.135 7.499-2.991-2.617-6.893-4.216-11.169-4.216s-8.178 1.599-11.169 4.215c-.62-3.421-2.982-6.238-6.135-7.499 1.4-1.099 2.304-2.802 2.304-4.716 0-3.309-2.691-6-6-6s-6 2.691-6 6c0 1.914.904 3.617 2.304 4.717-3.688 1.474-6.304 5.076-6.304 9.283v6h14.753c-.488 1.582-.753 3.26-.753 5 0 9.374 7.626 17 17 17s17-7.626 17-17c0-1.74-.265-3.418-.753-5h14.753v-6c0-4.207-2.616-7.809-6.304-9.283zm-2.738 7.911-.958.958-.958-.958.662-6.613c.099-.004.196-.015.296-.015s.197.011.296.015zm-4.958-12.628c0-2.206 1.794-4 4-4s4 1.794 4 4-1.794 4-4 4-4-1.794-4-4zm-17 39.692c-.971-.864-2.947-2.821-4.56-5.692h9.12c-1.613 2.871-3.589 4.828-4.56 5.692zm-5.533-7.692c-.749-1.76-1.288-3.769-1.418-6h13.901c-.13 2.231-.669 4.24-1.418 6zm-9.416-6h5.997c.112 2.206.563 4.219 1.23 6h-5.534c-.961-1.812-1.55-3.845-1.693-6zm1.692-8h5.534c-.667 1.781-1.117 3.794-1.23 6h-5.997c.144-2.155.733-4.188 1.693-6zm13.257-7.692c.971.864 2.947 2.821 4.56 5.692h-9.12c1.613-2.871 3.589-4.828 4.56-5.692zm5.533 7.692c.749 1.76 1.288 3.769 1.418 6h-13.902c.13-2.231.669-4.24 1.418-6zm3.419 8h5.997c-.143 2.155-.732 4.188-1.693 6h-5.534c.667-1.781 1.118-3.794 1.23-6zm0-2c-.112-2.206-.563-4.219-1.23-6h5.534c.961 1.812 1.55 3.845 1.693 6zm3.02-8h-5.131c-1.227-2.47-2.751-4.401-3.995-5.721 3.713.716 6.931 2.809 9.126 5.721zm-14.818-5.721c-1.244 1.32-2.768 3.251-3.995 5.721h-5.131c2.195-2.912 5.413-5.005 9.126-5.721zm-22.154-10.279c0-2.206 1.794-4 4-4s4 1.794 4 4-1.794 4-4 4-4-1.794-4-4zm5.974 6.257c-.128.98-.959 1.743-1.974 1.743s-1.846-.763-1.974-1.743c.633-.162 1.292-.257 1.974-.257s1.341.095 1.974.257zm-9.974 11.743v-4c0-3.012 1.675-5.639 4.141-7.003.446 1.722 1.999 3.003 3.859 3.003s3.413-1.281 3.859-3.003c2.466 1.364 4.141 3.991 4.141 7.003v.068c-.997 1.183-1.827 2.507-2.474 3.932zm17.028 16h5.131c1.227 2.47 2.751 4.401 3.995 5.721-3.713-.716-6.931-2.809-9.126-5.721zm14.818 5.721c1.244-1.32 2.768-3.251 3.995-5.721h5.131c-2.195 2.912-5.413 5.005-9.126 5.721zm26.154-21.721h-13.526c-.647-1.425-1.478-2.749-2.474-3.932v-.068c0-3.597 2.387-6.646 5.66-7.649l-.702 7.021 3.042 3.042 3.042-3.042-.702-7.021c3.273 1.003 5.66 4.052 5.66 7.649zm-34 4v-2h2v2zm6 0h-2v-2h2zm4 0h-2v-2h2zm-10 6h2v2h-2zm4 0h2v2h-2zm6 0v2h-2v-2zm-14-28h15.586l-1.293-1.293 1.414-1.414 4.707 4.707h-20.414zm4.414 46h13.586v2h-18.414l4.707-4.707 1.414 1.414zm-4.414-42h20v2h-20zm0 46h18v2h-18zm33.696-9.283c1.4-1.1 2.304-2.803 2.304-4.717 0-3.309-2.691-6-6-6s-6 2.691-6 6c0 1.914.904 3.617 2.304 4.717-3.688 1.474-6.304 5.076-6.304 9.283v6h20v-6c0-4.207-2.616-7.809-6.304-9.283zm-7.696-4.717c0-2.206 1.794-4 4-4s4 1.794 4 4-1.794 4-4 4-4-1.794-4-4zm5.974 6.257c-.128.98-.959 1.743-1.974 1.743s-1.846-.763-1.974-1.743c.633-.162 1.292-.257 1.974-.257s1.341.095 1.974.257zm6.026 11.743h-16v-4c0-3.012 1.675-5.639 4.141-7.003.446 1.722 1.999 3.003 3.859 3.003s3.413-1.281 3.859-3.003c2.466 1.364 4.141 3.991 4.141 7.003z" fill="url(#SVGID_1_)"/></svg>